<svg width="5494" height="11557" viewBox="0 0 5494 11557" fill="none" xmlns="http://www.w3.org/2000/svg">
<path opacity="0.5" d="M5134.73 3946.02C5090.51 4435.59 3743.33 5100.9 3127.27 4969.75C2511.21 4838.6 1324.92 3687.93 1411.56 3153.4C1498.19 2618.88 3001.62 2196.79 3554.42 2334.29C4107.23 2471.8 5178.96 3456.46 5134.73 3946.02Z" fill="#607D8B" fill-opacity="0.12"/>
<path d="M4653.27 4448.05C3958.9 4036.33 1104.76 4902.82 822.087 5588.15C539.419 6273.49 2491.59 7593.84 3460.8 7339.21C4430.01 7084.59 5347.64 4859.77 4653.27 4448.05Z" fill="#607D8B" fill-opacity="0.07"/>
<path d="M1068.97 11187.2C1542.8 11450.5 3025.26 10813.3 3307.39 10257.3C3589.53 9701.3 3316.41 8084.75 2774.08 7826.85C2231.75 7568.94 868.59 8474.76 633.437 8985.74C398.284 9496.71 595.132 10923.8 1068.97 11187.2Z" fill="#607D8B" fill-opacity="0.05"/>
<path d="M3051.19 9374.43C3647.51 8837.95 3839.49 6610.16 3319.91 6392.59C2800.32 6175.03 991.851 7725.94 906.798 8476.51C821.745 9227.08 2454.87 9910.92 3051.19 9374.43V9374.43Z" stroke="#8AB4F8" stroke-width="10" stroke-miterlimit="10"/>
<path d="M3897.07 3349.92C3543.9 3687.31 1536.98 4442.07 1003.18 3932.49C469.384 3422.91 856.446 1452.13 1450.78 1014.63C2045.11 577.122 4098.67 1047.98 4369.77 1454.25C4640.88 1860.51 4250.25 3012.53 3897.07 3349.92Z" fill="#1A73E8"/>
<path opacity="0.5" fill-rule="evenodd" clip-rule="evenodd" d="M1887.06 4085.96C2670.15 3994.15 3659.08 3577.28 3897.07 3349.92C4024.86 3227.84 4157.56 2999.11 4262.03 2737.65C4009.44 2536.98 3749.59 2382.84 3554.42 2334.29C3001.62 2196.78 1498.19 2618.88 1411.56 3153.4C1373.12 3390.58 1585.29 3749.06 1887.06 4085.96Z" fill="#185ABC"/>
<path d="M1312.94 3612.51C1757.54 3401.39 3271.35 4085.01 3607.3 4678.22C3943.25 5271.44 3720.68 6797.89 3233.07 7003.05C2745.46 7208.21 1271.38 6347.41 971.704 5787.15C672.031 5226.9 868.337 3823.62 1312.94 3612.5L1312.94 3612.51Z" stroke="#FFCA28" stroke-width="25" stroke-miterlimit="10"/>
<path d="M3986.62 7005.93C3954.17 6092.36 1942.22 4444.9 1303.33 4789.8C664.436 5134.7 688.726 7855.18 1349.83 8429.37C2010.94 9003.56 4019.07 7919.5 3986.62 7005.93V7005.93Z" stroke="white" stroke-width="15" stroke-miterlimit="10"/>
</svg>
